<svg width="25" height="24" viewBox="0 0 25 24" fill="none" xmlns="http://www.w3.org/2000/svg">
    <path
        d="M18.1839 12.5555C18.1746 10.957 18.8988 9.75234 20.3613 8.86406C19.5433 7.69219 18.3058 7.04766 16.6746 6.92344C15.13 6.80156 13.4402 7.82344 12.8214 7.82344C12.1675 7.82344 10.6722 6.96563 9.49565 6.96563C7.06753 7.00313 4.48706 8.90156 4.48706 12.7641C4.48706 13.9055 4.69565 15.0844 5.11284 16.2984C5.67065 17.8969 7.68159 21.8133 9.77925 21.75C10.8761 21.7242 11.6519 20.9719 13.0792 20.9719C14.4644 20.9719 15.1816 21.75 16.405 21.75C18.5214 21.7195 20.3402 18.1594 20.8699 16.5563C18.0316 15.218 18.1839 12.6375 18.1839 12.5555ZM15.7207 5.40703C16.9089 3.99609 16.8011 2.71172 16.766 2.25C15.716 2.31094 14.5019 2.96484 13.8105 3.76875C13.0488 4.63125 12.6011 5.69766 12.6972 6.9C13.8316 6.98672 14.8675 6.40313 15.7207 5.40703Z"
        fill="currentColor" />
</svg>